<?xml version="1.0" encoding="utf-8"?>
<!-- Generator: Adobe Illustrator 25.3.1, SVG Export Plug-In . SVG Version: 6.00 Build 0)  -->
<svg version="1.1" id="Layer_1" xmlns="http://www.w3.org/2000/svg" xmlns:xlink="http://www.w3.org/1999/xlink" x="0px" y="0px"
	 viewBox="0 0 100 60" style="enable-background:new 0 0 100 60;" xml:space="preserve">
<style type="text/css">
	.st0{fill:#FFFFFF;stroke:#FFFFFF;stroke-width:1.7;stroke-linecap:square;stroke-miterlimit:10;}
	.st1{fill:#EB5E35;}
	.st2{fill:#E2181B;stroke:#CF1417;stroke-miterlimit:10;}
	.st3{fill:#FFFFFF;stroke:#FFFFFF;stroke-linecap:square;stroke-miterlimit:10;}
	.st4{fill:none;stroke:#EB5E35;stroke-width:2.7;stroke-linejoin:round;stroke-miterlimit:10;}
	.st5{fill:none;stroke:#FFFFFF;stroke-width:2.7;stroke-linejoin:round;stroke-miterlimit:10;}
	.st6{fill:#EB5E35;stroke:#EB5E35;stroke-miterlimit:10;}
</style>
<path class="st0" d="M49,1.6L49,1.6V6l0,0l0,0c-2.8,0-5,0.4-6.9,2.2c-1.9,1.9-3,4.5-3,7.3v8.3h8.2v4.3H34.7V15.5
	c0-4,1.6-7.7,4.3-10.4C41.7,2.5,45,1.6,49,1.6"/>
<path class="st1" d="M49.6,22.9V29c0,0,7.4-0.3,11.7-6.3c2.5-3.4,2.5-7.6,2.5-9s0-5.1,0-5.1h-6l0,4.9c0,0-0.1,4.5-2.1,6.4
	C54.9,20.8,54,22.3,49.6,22.9z"/>
<g>
	<g>
		<path class="st1" d="M60.7,0.5c-1.7,0-3.2,1.4-3.2,3.1c0,0.6,0.2,1.1,0.4,1.5c0,0,0.2,1.2-0.7,1.7c0,0-0.2,0.2-0.2,0.2
			c0,0,0.4,0,0.4,0c0.8-0.1,1.9-0.3,2-0.3c0.3-0.1,0.4-0.1,0.9,0c0.2,0,0.3,0,0.5,0c1.9-0.1,3.2-1.4,3.2-3.1
			C63.9,1.7,62.6,0.5,60.7,0.5z"/>
	</g>
</g>
<g>
	<path class="st3" d="M16.4,50.5H7.1v-18h2.2v16h7.1V50.5z"/>
	<path class="st3" d="M32,50.5h-2.1v-2c-1.5,1.6-3.3,2.4-5.3,2.4c-2,0-3.7-0.7-5.1-2.1c-1.4-1.4-2.1-3.1-2.1-5c0-1.9,0.7-3.6,2.1-5
		c1.4-1.4,3.2-2.1,5.2-2.1c2,0,3.8,0.8,5.2,2.4l0,0l2.1,0V50.5z M24.8,49c1.4,0,2.6-0.5,3.7-1.5c1-1,1.5-2.2,1.5-3.7
		s-0.5-2.7-1.5-3.7c-1-1-2.2-1.5-3.7-1.5c-1.5,0-2.7,0.5-3.7,1.5c-1,1-1.5,2.2-1.5,3.6c0,1.4,0.5,2.6,1.5,3.6
		C22.1,48.5,23.4,49,24.8,49z"/>
	<path class="st3" d="M47.3,50.5h-2.1v-6.4c0-1.5-0.1-2.5-0.2-3c-0.1-0.5-0.4-1-0.6-1.4c-0.3-0.4-0.6-0.6-1.1-0.8
		c-0.4-0.2-1-0.3-1.6-0.3c-0.6,0-1.2,0.1-1.8,0.4c-0.6,0.3-1.1,0.7-1.5,1.2c-0.4,0.5-0.7,1.1-0.9,1.7c-0.2,0.6-0.2,1.8-0.2,3.5v5H35
		V37.1h2.1v2c1.4-1.6,3-2.4,4.9-2.4c1,0,1.9,0.3,2.8,0.8c0.8,0.5,1.4,1.2,1.9,2.1c0.4,0.9,0.6,2.2,0.6,4.1V50.5z"/>
	<path class="st3" d="M61.6,38.3l-0.2,0.1h-0.1c0.7,0.7,1.3,1.5,1.7,2.4c0.4,0.9,0.6,1.9,0.6,2.9c0,2-0.7,3.4-2,4.8
		c-1.3,1.4-2.9,2-4.7,2c-1.9,0-3.7-0.7-5.1-2.1c-1.3-1.4-1.8-2.9-1.8-4.9s0.8-3.7,2.3-5.2l0.6-0.6l0.7-0.7c1-0.7,1.3-0.7,2.3-0.9
		h4.6c0.3,0,1,0,1,0 M56.8,38.3c-1.4,0-2.3,0.4-3.5,1.5c-1,0.9-1.4,2.2-1.4,3.6c0,1.5,0.4,2.6,1.4,3.6c1,1,2.2,1.4,3.6,1.4
		c1.3,0,2.4-0.5,3.3-1.5c0.9-1,1.4-1.9,1.4-3.5c0-1.5-0.4-2.8-1.3-3.7C59.4,38.7,58.2,38.3,56.8,38.3z"/>
</g>
<g>
	<g>
		<path class="st4" d="M86.1,36.7c-3.4,0-6.1,2.7-6.1,6.1c0,1.1,0.3,2.2,0.8,3.1c0,0,0.5,1.3-1.4,3.3c0,0-0.3,0.3-0.3,0.3
			c0,0,0.5,0,0.5,0c1.8,0.1,3.7-1.2,3.8-1.2c0.4,0.2,1,0.4,1.8,0.6c0.3,0,0.6,0.1,0.9,0.1c3.4,0,6.1-2.7,6.1-6.1
			C92.2,39.5,89.5,36.7,86.1,36.7z"/>
	</g>
</g>
<path class="st5" d="M51.2,51.8c0.2,3.1,2.7,5.5,5.7,5.5c3.1,0,5.8-2.5,5.9-5.7"/>
<path class="st6" d="M74.3,30.8h2.5v13.4c0,1.8-0.5,3.2-1.6,4.3c-1.1,1-2.5,1.5-4.3,1.5c-1.8,0-3.3-0.5-4.3-1.4c-1-1-1.5-2.3-1.5-4
	h2.4c0,1.1,0.3,1.9,0.9,2.5c0.6,0.6,1.4,0.9,2.5,0.9c1,0,1.8-0.3,2.4-1s0.9-1.6,0.9-2.7V30.8z"/>
</svg>
